<?xml version="1.0" encoding="UTF-8"?>
<svg width="175px" height="174px" viewBox="0 0 175 174" version="1.1" xmlns="http://www.w3.org/2000/svg" xmlns:xlink="http://www.w3.org/1999/xlink">
    <!-- Generator: Sketch 61.2 (89653) - https://sketch.com -->
    <title>Oreti</title>
    <desc>Created with Sketch.</desc>
    <defs>
        <path d="M0,0.0964511371 L47,-1.42108547e-14 L48,45.076819 C48,51.7607574 42.627417,57.1791601 36,57.1791601 C29.372583,57.1791601 24,62.5975628 24,69.2815012 L24,83.8917689 C24,97.2596458 13.254834,108.096451 0,108.096451 L0,0.0964511371 Z" id="path-1"></path>
        <path d="M12.0932145,0 C18.7721124,0 24.1864289,5.35102088 24.1864289,11.9518397 L24.1864289,69.7190647 C24.1864289,76.3198834 18.7721124,81.6709043 12.0932145,81.6709043 C5.41431654,81.6709043 0,76.3198834 0,69.7190647 L0,11.9518397 C0,5.35102088 5.41431654,0 12.0932145,0 Z" id="path-3"></path>
        <ellipse id="path-5" cx="22.46645" cy="22.958672" rx="22.46645" ry="22.958672"></ellipse>
    </defs>
    <g id="页面-1" stroke="none" stroke-width="1" fill="none" fill-rule="evenodd">
        <g id="7分享页-中文" transform="translate(-15.000000, -158.000000)">
            <g id="编组" transform="translate(15.000000, 103.000000)">
                <g id="Oreti" transform="translate(0.000000, 55.000000)">
                    <path d="M12,17 C18.627417,17 24,22.372583 24,29 L24,87 C24,93.627417 18.627417,99 12,99 L0,99 L0,29 C0,22.372583 5.372583,17 12,17 Z" id="Shape" fill="#F2F2F2"></path>
                    <path d="M83,53 C89.627417,53 95,58.3958745 95,65.0520231 L95,171.913295 C95,178.569443 89.627417,183.965318 83,183.965318 C78.581722,183.965318 74.581722,186.643545 71,192 L71,65.0520231 C71,58.3958745 76.372583,53 83,53 Z" id="Shape" fill="#75CBB3"></path>
                    <path d="M83,0 C89.627417,0 95,5.39522029 95,12.0505618 L95,118.898876 C95,125.554218 89.627417,130.949438 83,130.949438 C78.581722,130.949438 74.581722,134.966292 71,143 L71,12.0505618 C71,5.39522029 76.372583,0 83,0 Z" id="Shape" fill="#F2F2F2"></path>
                    <path d="M12,147 C18.627417,147 24,152.372583 24,159 L24,217 C24,223.627417 18.627417,229 12,229 L0,229 L0,159 C0,152.372583 5.372583,147 12,147 Z" id="Shape" fill="#DC2249"></path>
                    <path d="M60,182 L36,182 C34.2351113,182 32.5592107,181.617075 31.0500624,180.929381 L64.9499376,180.929381 C63.4407893,181.617075 61.7648887,182 60,182 Z M69.1103657,177.789533 L26.8896343,177.789533 C26.5879723,177.436228 26.3063052,177.065174 26.0463964,176.678145 L69.9536036,176.678145 C69.6936948,177.065174 69.4120277,177.436228 69.1103657,177.789533 Z M71.3270146,173.931571 L24.6729854,173.931571 C24.5100136,173.464461 24.374838,172.984213 24.2694525,172.492832 L71.7305475,172.492832 C71.625162,172.984213 71.4899864,173.464461 71.3270146,173.931571 Z M71.989,168.372 L72,169.939482 L71.999,170.007 L24.0001874,170.007611 C24.0000625,169.984916 24,169.962207 24,169.939482 L24,168.372 L71.989,168.372 Z M71.957,163.991 L71.973,166.28 L24,166.28 L24,163.991 L71.957,163.991 Z M71.927,159.936 L71.944,162.291 L24,162.291 L24,159.936 L71.927,159.936 Z M71.896,155.686 L71.916,158.498 L24,158.498 L24,155.686 L71.896,155.686 Z M71.865,151.435 L71.888,154.639 L24,154.639 L24,151.435 L71.865,151.435 Z M71.834,147.25 L71.86,150.781 L24,150.781 L24,147.25 L71.834,147.25 Z M71,33 L71.831,146.857 L24,146.857 L24,33.690182 L43.6,33.690182 L43.6,33 L71,33 Z" id="Shape" fill="#7A4865"></path>
                    <g id="Shape" transform="translate(24.000000, 33.000000)">
                        <mask id="mask-2" fill="white">
                            <use xlink:href="#path-1"></use>
                        </mask>
                        <use fill="#F6CB51" xlink:href="#path-1"></use>
                    </g>
                    <path d="M144,99.2152091 L144,168.038014 C144,174.654934 138.627417,180.019007 132,180.019007 C127.581722,180.019007 123.581722,184.012671 120,192 L120,89 C120.858024,94.7802273 125.845399,99.2152091 131.869565,99.2152091 L144,99.2152091 Z" id="Shape" fill="#3D2C42"></path>
                    <g id="Shape" transform="translate(120.000000, 123.000000)">
                        <mask id="mask-4" fill="white">
                            <use xlink:href="#path-3"></use>
                        </mask>
                        <use fill="#DC2249" xlink:href="#path-3"></use>
                    </g>
                    <path d="M12,130.741379 C10.8954305,130.741379 10,129.795774 10,128.62931 C10,127.462847 10.8954305,126.517241 12,126.517241 C13.1045695,126.517241 14,127.462847 14,128.62931 C14,129.795774 13.1045695,130.741379 12,130.741379 Z M12,141 C10.8954305,141 10,140.054395 10,138.887931 C10,137.721468 10.8954305,136.775862 12,136.775862 C13.1045695,136.775862 14,137.721468 14,138.887931 C14,140.054395 13.1045695,141 12,141 Z M12,110.224138 C10.8954305,110.224138 10,109.278532 10,108.112069 C10,106.945605 10.8954305,106 12,106 C13.1045695,106 14,106.945605 14,108.112069 C14,109.278532 13.1045695,110.224138 12,110.224138 Z M12,120.482759 C10.8954305,120.482759 10,119.537153 10,118.37069 C10,117.204226 10.8954305,116.258621 12,116.258621 C13.1045695,116.258621 14,117.204226 14,118.37069 C14,119.537153 13.1045695,120.482759 12,120.482759 Z" id="Shape" fill="#75CBB3"></path>
                    <g id="Shape" transform="translate(74.000000, 34.000000)">
                        <mask id="mask-6" fill="white">
                            <use xlink:href="#path-5"></use>
                        </mask>
                        <use fill="#75CBB3" xlink:href="#path-5"></use>
                        <path d="M69.7642395,-1.61113488 L69.7642395,137.672941 C69.7642395,143.195789 65.287087,147.672941 59.7642395,147.672941 L46.1153448,147.672941 L32.46645,147.672941 C26.9436025,147.672941 22.46645,143.195789 22.46645,137.672941 L22.46645,-1.61113488 L22.46645,-1.61113488 L69.7642395,-1.61113488 Z" fill="#F2F2F2" mask="url(#mask-6)"></path>
                        <rect fill="#7A4865" mask="url(#mask-6)" x="22.46645" y="22.7572802" width="22.46645" height="39.0700208"></rect>
                    </g>
                    <path d="M174.402439,143.506494 C174.072415,143.506494 173.804878,143.246256 173.804878,142.925237 C173.804878,142.604218 174.072415,142.34398 174.402439,142.34398 C174.732463,142.34398 175,142.604218 175,142.925237 C175,143.246256 174.732463,143.506494 174.402439,143.506494 Z M174.402439,139.437697 C174.072415,139.437697 173.804878,139.17746 173.804878,138.856441 C173.804878,138.535422 174.072415,138.275184 174.402439,138.275184 C174.732463,138.275184 175,138.535422 175,138.856441 C175,139.17746 174.732463,139.437697 174.402439,139.437697 Z M174.402439,135.368901 C174.072415,135.368901 173.804878,135.108664 173.804878,134.787645 C173.804878,134.466626 174.072415,134.206388 174.402439,134.206388 C174.732463,134.206388 175,134.466626 175,134.787645 C175,135.108664 174.732463,135.368901 174.402439,135.368901 Z M174.402439,131.300105 C174.072415,131.300105 173.804878,131.039868 173.804878,130.718849 C173.804878,130.39783 174.072415,130.137592 174.402439,130.137592 C174.732463,130.137592 175,130.39783 175,130.718849 C175,131.039868 174.732463,131.300105 174.402439,131.300105 Z M174.402439,127.231309 C174.072415,127.231309 173.804878,126.971072 173.804878,126.650053 C173.804878,126.329034 174.072415,126.068796 174.402439,126.068796 C174.732463,126.068796 175,126.329034 175,126.650053 C175,126.971072 174.732463,127.231309 174.402439,127.231309 Z M174.402439,123.162513 C174.072415,123.162513 173.804878,122.902276 173.804878,122.581257 C173.804878,122.260237 174.072415,122 174.402439,122 C174.732463,122 175,122.260237 175,122.581257 C175,122.902276 174.732463,123.162513 174.402439,123.162513 Z M170.47561,143.506494 C170.145586,143.506494 169.878049,143.246256 169.878049,142.925237 C169.878049,142.604218 170.145586,142.34398 170.47561,142.34398 C170.805634,142.34398 171.073171,142.604218 171.073171,142.925237 C171.073171,143.246256 170.805634,143.506494 170.47561,143.506494 Z M170.47561,139.437697 C170.145586,139.437697 169.878049,139.17746 169.878049,138.856441 C169.878049,138.535422 170.145586,138.275184 170.47561,138.275184 C170.805634,138.275184 171.073171,138.535422 171.073171,138.856441 C171.073171,139.17746 170.805634,139.437697 170.47561,139.437697 Z M170.47561,135.368901 C170.145586,135.368901 169.878049,135.108664 169.878049,134.787645 C169.878049,134.466626 170.145586,134.206388 170.47561,134.206388 C170.805634,134.206388 171.073171,134.466626 171.073171,134.787645 C171.073171,135.108664 170.805634,135.368901 170.47561,135.368901 Z M170.47561,131.300105 C170.145586,131.300105 169.878049,131.039868 169.878049,130.718849 C169.878049,130.39783 170.145586,130.137592 170.47561,130.137592 C170.805634,130.137592 171.073171,130.39783 171.073171,130.718849 C171.073171,131.039868 170.805634,131.300105 170.47561,131.300105 Z M170.47561,127.231309 C170.145586,127.231309 169.878049,126.971072 169.878049,126.650053 C169.878049,126.329034 170.145586,126.068796 170.47561,126.068796 C170.805634,126.068796 171.073171,126.329034 171.073171,126.650053 C171.073171,126.971072 170.805634,127.231309 170.47561,127.231309 Z M170.47561,123.162513 C170.145586,123.162513 169.878049,122.902276 169.878049,122.581257 C169.878049,122.260237 170.145586,122 170.47561,122 C170.805634,122 171.073171,122.260237 171.073171,122.581257 C171.073171,122.902276 170.805634,123.162513 170.47561,123.162513 Z M166.54878,143.506494 C166.218757,143.506494 165.95122,143.246256 165.95122,142.925237 C165.95122,142.604218 166.218757,142.34398 166.54878,142.34398 C166.878804,142.34398 167.146341,142.604218 167.146341,142.925237 C167.146341,143.246256 166.878804,143.506494 166.54878,143.506494 Z M166.54878,139.437697 C166.218757,139.437697 165.95122,139.17746 165.95122,138.856441 C165.95122,138.535422 166.218757,138.275184 166.54878,138.275184 C166.878804,138.275184 167.146341,138.535422 167.146341,138.856441 C167.146341,139.17746 166.878804,139.437697 166.54878,139.437697 Z M166.54878,135.368901 C166.218757,135.368901 165.95122,135.108664 165.95122,134.787645 C165.95122,134.466626 166.218757,134.206388 166.54878,134.206388 C166.878804,134.206388 167.146341,134.466626 167.146341,134.787645 C167.146341,135.108664 166.878804,135.368901 166.54878,135.368901 Z M166.54878,131.300105 C166.218757,131.300105 165.95122,131.039868 165.95122,130.718849 C165.95122,130.39783 166.218757,130.137592 166.54878,130.137592 C166.878804,130.137592 167.146341,130.39783 167.146341,130.718849 C167.146341,131.039868 166.878804,131.300105 166.54878,131.300105 Z M166.54878,127.231309 C166.218757,127.231309 165.95122,126.971072 165.95122,126.650053 C165.95122,126.329034 166.218757,126.068796 166.54878,126.068796 C166.878804,126.068796 167.146341,126.329034 167.146341,126.650053 C167.146341,126.971072 166.878804,127.231309 166.54878,127.231309 Z M166.54878,123.162513 C166.218757,123.162513 165.95122,122.902276 165.95122,122.581257 C165.95122,122.260237 166.218757,122 166.54878,122 C166.878804,122 167.146341,122.260237 167.146341,122.581257 C167.146341,122.902276 166.878804,123.162513 166.54878,123.162513 Z M162.45122,143.506494 C162.121196,143.506494 161.853659,143.246256 161.853659,142.925237 C161.853659,142.604218 162.121196,142.34398 162.45122,142.34398 C162.781243,142.34398 163.04878,142.604218 163.04878,142.925237 C163.04878,143.246256 162.781243,143.506494 162.45122,143.506494 Z M162.45122,139.437697 C162.121196,139.437697 161.853659,139.17746 161.853659,138.856441 C161.853659,138.535422 162.121196,138.275184 162.45122,138.275184 C162.781243,138.275184 163.04878,138.535422 163.04878,138.856441 C163.04878,139.17746 162.781243,139.437697 162.45122,139.437697 Z M162.45122,135.368901 C162.121196,135.368901 161.853659,135.108664 161.853659,134.787645 C161.853659,134.466626 162.121196,134.206388 162.45122,134.206388 C162.781243,134.206388 163.04878,134.466626 163.04878,134.787645 C163.04878,135.108664 162.781243,135.368901 162.45122,135.368901 Z M162.45122,131.300105 C162.121196,131.300105 161.853659,131.039868 161.853659,130.718849 C161.853659,130.39783 162.121196,130.137592 162.45122,130.137592 C162.781243,130.137592 163.04878,130.39783 163.04878,130.718849 C163.04878,131.039868 162.781243,131.300105 162.45122,131.300105 Z M162.45122,127.231309 C162.121196,127.231309 161.853659,126.971072 161.853659,126.650053 C161.853659,126.329034 162.121196,126.068796 162.45122,126.068796 C162.781243,126.068796 163.04878,126.329034 163.04878,126.650053 C163.04878,126.971072 162.781243,127.231309 162.45122,127.231309 Z M162.45122,123.162513 C162.121196,123.162513 161.853659,122.902276 161.853659,122.581257 C161.853659,122.260237 162.121196,122 162.45122,122 C162.781243,122 163.04878,122.260237 163.04878,122.581257 C163.04878,122.902276 162.781243,123.162513 162.45122,123.162513 Z M158.52439,143.506494 C158.194366,143.506494 157.926829,143.246256 157.926829,142.925237 C157.926829,142.604218 158.194366,142.34398 158.52439,142.34398 C158.854414,142.34398 159.121951,142.604218 159.121951,142.925237 C159.121951,143.246256 158.854414,143.506494 158.52439,143.506494 Z M158.52439,139.437697 C158.194366,139.437697 157.926829,139.17746 157.926829,138.856441 C157.926829,138.535422 158.194366,138.275184 158.52439,138.275184 C158.854414,138.275184 159.121951,138.535422 159.121951,138.856441 C159.121951,139.17746 158.854414,139.437697 158.52439,139.437697 Z M158.52439,135.368901 C158.194366,135.368901 157.926829,135.108664 157.926829,134.787645 C157.926829,134.466626 158.194366,134.206388 158.52439,134.206388 C158.854414,134.206388 159.121951,134.466626 159.121951,134.787645 C159.121951,135.108664 158.854414,135.368901 158.52439,135.368901 Z M158.52439,131.300105 C158.194366,131.300105 157.926829,131.039868 157.926829,130.718849 C157.926829,130.39783 158.194366,130.137592 158.52439,130.137592 C158.854414,130.137592 159.121951,130.39783 159.121951,130.718849 C159.121951,131.039868 158.854414,131.300105 158.52439,131.300105 Z M158.52439,127.231309 C158.194366,127.231309 157.926829,126.971072 157.926829,126.650053 C157.926829,126.329034 158.194366,126.068796 158.52439,126.068796 C158.854414,126.068796 159.121951,126.329034 159.121951,126.650053 C159.121951,126.971072 158.854414,127.231309 158.52439,127.231309 Z M158.52439,123.162513 C158.194366,123.162513 157.926829,122.902276 157.926829,122.581257 C157.926829,122.260237 158.194366,122 158.52439,122 C158.854414,122 159.121951,122.260237 159.121951,122.581257 C159.121951,122.902276 158.854414,123.162513 158.52439,123.162513 Z M154.597561,143.506494 C154.267537,143.506494 154,143.246256 154,142.925237 C154,142.604218 154.267537,142.34398 154.597561,142.34398 C154.927585,142.34398 155.195122,142.604218 155.195122,142.925237 C155.195122,143.246256 154.927585,143.506494 154.597561,143.506494 Z M154.597561,139.437697 C154.267537,139.437697 154,139.17746 154,138.856441 C154,138.535422 154.267537,138.275184 154.597561,138.275184 C154.927585,138.275184 155.195122,138.535422 155.195122,138.856441 C155.195122,139.17746 154.927585,139.437697 154.597561,139.437697 Z M154.597561,135.368901 C154.267537,135.368901 154,135.108664 154,134.787645 C154,134.466626 154.267537,134.206388 154.597561,134.206388 C154.927585,134.206388 155.195122,134.466626 155.195122,134.787645 C155.195122,135.108664 154.927585,135.368901 154.597561,135.368901 Z M154.597561,131.300105 C154.267537,131.300105 154,131.039868 154,130.718849 C154,130.39783 154.267537,130.137592 154.597561,130.137592 C154.927585,130.137592 155.195122,130.39783 155.195122,130.718849 C155.195122,131.039868 154.927585,131.300105 154.597561,131.300105 Z M154.597561,127.231309 C154.267537,127.231309 154,126.971072 154,126.650053 C154,126.329034 154.267537,126.068796 154.597561,126.068796 C154.927585,126.068796 155.195122,126.329034 155.195122,126.650053 C155.195122,126.971072 154.927585,127.231309 154.597561,127.231309 Z M154.597561,123.162513 C154.267537,123.162513 154,122.902276 154,122.581257 C154,122.260237 154.267537,122 154.597561,122 C154.927585,122 155.195122,122.260237 155.195122,122.581257 C155.195122,122.902276 154.927585,123.162513 154.597561,123.162513 Z M174.402439,168 C174.072415,168 173.804878,167.739763 173.804878,167.418743 C173.804878,167.097724 174.072415,166.837487 174.402439,166.837487 C174.732463,166.837487 175,167.097724 175,167.418743 C175,167.739763 174.732463,168 174.402439,168 Z M174.402439,163.931204 C174.072415,163.931204 173.804878,163.670966 173.804878,163.349947 C173.804878,163.028928 174.072415,162.768691 174.402439,162.768691 C174.732463,162.768691 175,163.028928 175,163.349947 C175,163.670966 174.732463,163.931204 174.402439,163.931204 Z M174.402439,159.862408 C174.072415,159.862408 173.804878,159.60217 173.804878,159.281151 C173.804878,158.960132 174.072415,158.699895 174.402439,158.699895 C174.732463,158.699895 175,158.960132 175,159.281151 C175,159.60217 174.732463,159.862408 174.402439,159.862408 Z M174.402439,155.793612 C174.072415,155.793612 173.804878,155.533374 173.804878,155.212355 C173.804878,154.891336 174.072415,154.631099 174.402439,154.631099 C174.732463,154.631099 175,154.891336 175,155.212355 C175,155.533374 174.732463,155.793612 174.402439,155.793612 Z M174.402439,151.724816 C174.072415,151.724816 173.804878,151.464578 173.804878,151.143559 C173.804878,150.82254 174.072415,150.562303 174.402439,150.562303 C174.732463,150.562303 175,150.82254 175,151.143559 C175,151.464578 174.732463,151.724816 174.402439,151.724816 Z M174.402439,147.65602 C174.072415,147.65602 173.804878,147.395782 173.804878,147.074763 C173.804878,146.753744 174.072415,146.493506 174.402439,146.493506 C174.732463,146.493506 175,146.753744 175,147.074763 C175,147.395782 174.732463,147.65602 174.402439,147.65602 Z M170.47561,168 C170.145586,168 169.878049,167.739763 169.878049,167.418743 C169.878049,167.097724 170.145586,166.837487 170.47561,166.837487 C170.805634,166.837487 171.073171,167.097724 171.073171,167.418743 C171.073171,167.739763 170.805634,168 170.47561,168 Z M170.47561,163.931204 C170.145586,163.931204 169.878049,163.670966 169.878049,163.349947 C169.878049,163.028928 170.145586,162.768691 170.47561,162.768691 C170.805634,162.768691 171.073171,163.028928 171.073171,163.349947 C171.073171,163.670966 170.805634,163.931204 170.47561,163.931204 Z M170.47561,159.862408 C170.145586,159.862408 169.878049,159.60217 169.878049,159.281151 C169.878049,158.960132 170.145586,158.699895 170.47561,158.699895 C170.805634,158.699895 171.073171,158.960132 171.073171,159.281151 C171.073171,159.60217 170.805634,159.862408 170.47561,159.862408 Z M170.47561,155.793612 C170.145586,155.793612 169.878049,155.533374 169.878049,155.212355 C169.878049,154.891336 170.145586,154.631099 170.47561,154.631099 C170.805634,154.631099 171.073171,154.891336 171.073171,155.212355 C171.073171,155.533374 170.805634,155.793612 170.47561,155.793612 Z M170.47561,151.724816 C170.145586,151.724816 169.878049,151.464578 169.878049,151.143559 C169.878049,150.82254 170.145586,150.562303 170.47561,150.562303 C170.805634,150.562303 171.073171,150.82254 171.073171,151.143559 C171.073171,151.464578 170.805634,151.724816 170.47561,151.724816 Z M170.47561,147.65602 C170.145586,147.65602 169.878049,147.395782 169.878049,147.074763 C169.878049,146.753744 170.145586,146.493506 170.47561,146.493506 C170.805634,146.493506 171.073171,146.753744 171.073171,147.074763 C171.073171,147.395782 170.805634,147.65602 170.47561,147.65602 Z M166.54878,168 C166.218757,168 165.95122,167.739763 165.95122,167.418743 C165.95122,167.097724 166.218757,166.837487 166.54878,166.837487 C166.878804,166.837487 167.146341,167.097724 167.146341,167.418743 C167.146341,167.739763 166.878804,168 166.54878,168 Z M166.54878,163.931204 C166.218757,163.931204 165.95122,163.670966 165.95122,163.349947 C165.95122,163.028928 166.218757,162.768691 166.54878,162.768691 C166.878804,162.768691 167.146341,163.028928 167.146341,163.349947 C167.146341,163.670966 166.878804,163.931204 166.54878,163.931204 Z M166.54878,159.862408 C166.218757,159.862408 165.95122,159.60217 165.95122,159.281151 C165.95122,158.960132 166.218757,158.699895 166.54878,158.699895 C166.878804,158.699895 167.146341,158.960132 167.146341,159.281151 C167.146341,159.60217 166.878804,159.862408 166.54878,159.862408 Z M166.54878,155.793612 C166.218757,155.793612 165.95122,155.533374 165.95122,155.212355 C165.95122,154.891336 166.218757,154.631099 166.54878,154.631099 C166.878804,154.631099 167.146341,154.891336 167.146341,155.212355 C167.146341,155.533374 166.878804,155.793612 166.54878,155.793612 Z M166.54878,151.724816 C166.218757,151.724816 165.95122,151.464578 165.95122,151.143559 C165.95122,150.82254 166.218757,150.562303 166.54878,150.562303 C166.878804,150.562303 167.146341,150.82254 167.146341,151.143559 C167.146341,151.464578 166.878804,151.724816 166.54878,151.724816 Z M166.54878,147.65602 C166.218757,147.65602 165.95122,147.395782 165.95122,147.074763 C165.95122,146.753744 166.218757,146.493506 166.54878,146.493506 C166.878804,146.493506 167.146341,146.753744 167.146341,147.074763 C167.146341,147.395782 166.878804,147.65602 166.54878,147.65602 Z M162.45122,168 C162.121196,168 161.853659,167.739763 161.853659,167.418743 C161.853659,167.097724 162.121196,166.837487 162.45122,166.837487 C162.781243,166.837487 163.04878,167.097724 163.04878,167.418743 C163.04878,167.739763 162.781243,168 162.45122,168 Z M162.45122,163.931204 C162.121196,163.931204 161.853659,163.670966 161.853659,163.349947 C161.853659,163.028928 162.121196,162.768691 162.45122,162.768691 C162.781243,162.768691 163.04878,163.028928 163.04878,163.349947 C163.04878,163.670966 162.781243,163.931204 162.45122,163.931204 Z M162.45122,159.862408 C162.121196,159.862408 161.853659,159.60217 161.853659,159.281151 C161.853659,158.960132 162.121196,158.699895 162.45122,158.699895 C162.781243,158.699895 163.04878,158.960132 163.04878,159.281151 C163.04878,159.60217 162.781243,159.862408 162.45122,159.862408 Z M162.45122,155.793612 C162.121196,155.793612 161.853659,155.533374 161.853659,155.212355 C161.853659,154.891336 162.121196,154.631099 162.45122,154.631099 C162.781243,154.631099 163.04878,154.891336 163.04878,155.212355 C163.04878,155.533374 162.781243,155.793612 162.45122,155.793612 Z M162.45122,151.724816 C162.121196,151.724816 161.853659,151.464578 161.853659,151.143559 C161.853659,150.82254 162.121196,150.562303 162.45122,150.562303 C162.781243,150.562303 163.04878,150.82254 163.04878,151.143559 C163.04878,151.464578 162.781243,151.724816 162.45122,151.724816 Z M162.45122,147.65602 C162.121196,147.65602 161.853659,147.395782 161.853659,147.074763 C161.853659,146.753744 162.121196,146.493506 162.45122,146.493506 C162.781243,146.493506 163.04878,146.753744 163.04878,147.074763 C163.04878,147.395782 162.781243,147.65602 162.45122,147.65602 Z M158.52439,168 C158.194366,168 157.926829,167.739763 157.926829,167.418743 C157.926829,167.097724 158.194366,166.837487 158.52439,166.837487 C158.854414,166.837487 159.121951,167.097724 159.121951,167.418743 C159.121951,167.739763 158.854414,168 158.52439,168 Z M158.52439,163.931204 C158.194366,163.931204 157.926829,163.670966 157.926829,163.349947 C157.926829,163.028928 158.194366,162.768691 158.52439,162.768691 C158.854414,162.768691 159.121951,163.028928 159.121951,163.349947 C159.121951,163.670966 158.854414,163.931204 158.52439,163.931204 Z M158.52439,159.862408 C158.194366,159.862408 157.926829,159.60217 157.926829,159.281151 C157.926829,158.960132 158.194366,158.699895 158.52439,158.699895 C158.854414,158.699895 159.121951,158.960132 159.121951,159.281151 C159.121951,159.60217 158.854414,159.862408 158.52439,159.862408 Z M158.52439,155.793612 C158.194366,155.793612 157.926829,155.533374 157.926829,155.212355 C157.926829,154.891336 158.194366,154.631099 158.52439,154.631099 C158.854414,154.631099 159.121951,154.891336 159.121951,155.212355 C159.121951,155.533374 158.854414,155.793612 158.52439,155.793612 Z M158.52439,151.724816 C158.194366,151.724816 157.926829,151.464578 157.926829,151.143559 C157.926829,150.82254 158.194366,150.562303 158.52439,150.562303 C158.854414,150.562303 159.121951,150.82254 159.121951,151.143559 C159.121951,151.464578 158.854414,151.724816 158.52439,151.724816 Z M158.52439,147.65602 C158.194366,147.65602 157.926829,147.395782 157.926829,147.074763 C157.926829,146.753744 158.194366,146.493506 158.52439,146.493506 C158.854414,146.493506 159.121951,146.753744 159.121951,147.074763 C159.121951,147.395782 158.854414,147.65602 158.52439,147.65602 Z M154.597561,168 C154.267537,168 154,167.739763 154,167.418743 C154,167.097724 154.267537,166.837487 154.597561,166.837487 C154.927585,166.837487 155.195122,167.097724 155.195122,167.418743 C155.195122,167.739763 154.927585,168 154.597561,168 Z M154.597561,163.931204 C154.267537,163.931204 154,163.670966 154,163.349947 C154,163.028928 154.267537,162.768691 154.597561,162.768691 C154.927585,162.768691 155.195122,163.028928 155.195122,163.349947 C155.195122,163.670966 154.927585,163.931204 154.597561,163.931204 Z M154.597561,159.862408 C154.267537,159.862408 154,159.60217 154,159.281151 C154,158.960132 154.267537,158.699895 154.597561,158.699895 C154.927585,158.699895 155.195122,158.960132 155.195122,159.281151 C155.195122,159.60217 154.927585,159.862408 154.597561,159.862408 Z M154.597561,155.793612 C154.267537,155.793612 154,155.533374 154,155.212355 C154,154.891336 154.267537,154.631099 154.597561,154.631099 C154.927585,154.631099 155.195122,154.891336 155.195122,155.212355 C155.195122,155.533374 154.927585,155.793612 154.597561,155.793612 Z M154.597561,151.724816 C154.267537,151.724816 154,151.464578 154,151.143559 C154,150.82254 154.267537,150.562303 154.597561,150.562303 C154.927585,150.562303 155.195122,150.82254 155.195122,151.143559 C155.195122,151.464578 154.927585,151.724816 154.597561,151.724816 Z M154.597561,147.65602 C154.267537,147.65602 154,147.395782 154,147.074763 C154,146.753744 154.267537,146.493506 154.597561,146.493506 C154.927585,146.493506 155.195122,146.753744 155.195122,147.074763 C155.195122,147.395782 154.927585,147.65602 154.597561,147.65602 Z" id="Shape" fill="#DC2249"></path>
                    <g id="Shape" transform="translate(55.000000, 92.000000)">
                        <ellipse fill="#F2F2F2" cx="28.8349221" cy="29.323094" rx="28.8349221" ry="29.323094"></ellipse>
                        <ellipse fill="#75CBB3" cx="37.1298997" cy="18.8792523" rx="12.6399659" ry="12.853959"></ellipse>
                    </g>
                    <circle id="Shape" fill="#7A4865" cx="48" cy="69" r="9"></circle>
                    <circle id="Shape" fill="#7A4865" cx="135" cy="83" r="9"></circle>
                    <circle id="Shape" fill="#7A4865" cx="30.5" cy="56.5" r="3.5"></circle>
                    <circle id="Shape" fill="#F2F2F2" cx="34.5" cy="88.5" r="4.5"></circle>
                </g>
            </g>
        </g>
    </g>
</svg>